<?xml version="1.0" encoding="UTF-8"?>
<svg xmlns="http://www.w3.org/2000/svg" viewBox="0 0 64 64">
  <defs>
    <mask id="m" maskUnits="userSpaceOnUse" x="0" y="0" width="64" height="64">
      <rect width="64" height="64" rx="16" fill="#fff"/>
      <path fill="#000" transform="translate(2.5 2.5) scale(1.45)" d="M14.2 14.2h9.4c5 0 8.3 2.95 8.3 7.4 0 3.65-2.1 6.25-5.5 7.1v.15c2.25.55 3.65 2.45 3.65 5.25V35.6h-5.6v-5.7c0-1.9-1-2.95-2.95-2.95h-2.7V35.6h-5.6V14.2zm5.6 4.5v5.25h3.15c2.1 0 3.35-1.1 3.35-2.7s-1.25-2.55-3.35-2.55H19.8z"/>
    </mask>
  </defs>
  <rect width="64" height="64" rx="16" fill="#2563eb" mask="url(#m)"/>
</svg>
