<?xml version="1.0" encoding="UTF-8"?>
<svg xmlns="http://www.w3.org/2000/svg" viewBox="0 2 160.2 50.7" role="img" aria-label="Patygo Teknoloji">
  <title>Patygo Teknoloji</title>
  <defs>
    <mask id="mark" maskUnits="userSpaceOnUse" x="0" y="4" width="42" height="42">
      <rect x="0" y="4" width="42" height="42" rx="11" fill="#fff"/>
      <path fill="#000" d="M14.2 14.2h9.4c5 0 8.3 2.95 8.3 7.4 0 3.65-2.1 6.25-5.5 7.1v.15c2.25.55 3.65 2.45 3.65 5.25V35.6h-5.6v-5.7c0-1.9-1-2.95-2.95-2.95h-2.7V35.6h-5.6V14.2zm5.6 4.5v5.25h3.15c2.1 0 3.35-1.1 3.35-2.7s-1.25-2.55-3.35-2.55H19.8z"/>
    </mask>
  </defs>
  <rect x="0" y="4" width="42" height="42" rx="11" fill="#2563eb" mask="url(#mark)"/>
  <g fill="#2563eb" transform="translate(51.44 27)">
    <path d="M10.02-7.72L7.61-7.72L7.61 0L2.56 0L2.56-22.41L10.47-22.41Q18.94-22.41 18.94-15.27Q18.94-11.89 16.51-9.80Q14.08-7.72 10.02-7.72M9.59-18.53L7.61-18.53L7.61-11.55L9.59-11.55Q13.63-11.55 13.63-15.08Q13.63-18.53 9.59-18.53M35.05-9.56L35.05 0L30.38 0L30.38-2.30L30.31-2.30Q28.70 0.39 25.55 0.39Q23.22 0.39 21.88-0.93Q20.55-2.25 20.55-4.45Q20.55-9.11 26.06-9.83L30.41-10.41Q30.41-13.03 27.56-13.03Q24.70-13.03 22.13-11.33L22.13-15.05Q23.16-15.58 24.95-15.98Q26.73-16.39 28.20-16.39Q35.05-16.39 35.05-9.56M30.41-6.50L30.41-7.58L27.50-7.20Q25.09-6.89 25.09-5.03Q25.09-4.19 25.68-3.65Q26.27-3.11 27.27-3.11Q28.66-3.11 29.53-4.07Q30.41-5.03 30.41-6.50M48.63-3.84L48.63-0.19Q47.53 0.39 45.33 0.39Q40.11 0.39 40.11-5.03L40.11-12.36L37.52-12.36L37.52-16L40.11-16L40.11-19.45L45.03-20.86L45.03-16L48.63-16L48.63-12.36L45.03-12.36L45.03-5.89Q45.03-3.39 47.02-3.39Q47.80-3.39 48.63-3.84M61.75-16L66.64-16L60.14 1.28Q57.80 7.52 53.08 7.52Q51.28 7.52 50.13 7.11L50.13 3.17Q51.11 3.75 52.27 3.75Q54.17 3.75 54.92 1.95L55.77-0.03L49.27-16L54.73-16L57.72-6.27Q58-5.36 58.16-4.12L58.22-4.12Q58.36-5.03 58.73-6.23L61.75-16M84.31-16L84.31-1.83Q84.31 2.63 81.73 5.07Q79.16 7.52 74.27 7.52Q71.03 7.52 69.14 6.59L69.14 2.44Q71.61 3.88 74.13 3.88Q76.63 3.88 78 2.55Q79.38 1.23 79.38-1.03L79.38-2.30L79.31-2.30Q77.63 0.39 74.33 0.39Q71.27 0.39 69.47-1.77Q67.67-3.92 67.67-7.55Q67.67-11.61 69.67-14Q71.67-16.39 74.94-16.39Q77.86-16.39 79.31-14.14L79.38-14.14L79.38-16L84.31-16M79.44-7.69L79.44-8.95Q79.44-10.47 78.54-11.54Q77.64-12.61 76.20-12.61Q74.56-12.61 73.63-11.33Q72.69-10.05 72.69-7.72Q72.69-5.72 73.58-4.55Q74.47-3.39 76.02-3.39Q77.55-3.39 78.49-4.57Q79.44-5.75 79.44-7.69M96.06 0.39Q92.06 0.39 89.77-1.85Q87.48-4.09 87.48-7.94Q87.48-11.91 89.86-14.15Q92.23-16.39 96.28-16.39Q100.27-16.39 102.53-14.15Q104.80-11.91 104.80-8.22Q104.80-4.23 102.46-1.92Q100.13 0.39 96.06 0.39M96.19-12.61Q94.44-12.61 93.47-11.41Q92.50-10.20 92.50-8Q92.50-3.39 96.22-3.39Q99.77-3.39 99.77-8.12Q99.77-12.61 96.19-12.61"/>
  </g>
  <g fill="#64748b" transform="translate(54.77 48)">
    <path d="M4.22-1.38L4.22-0.07Q3.83 0.14 3.04 0.14Q1.16 0.14 1.16-1.81L1.16-4.44L0.23-4.44L0.23-5.75L1.16-5.75L1.16-6.99L2.93-7.50L2.93-5.75L4.22-5.75L4.22-4.44L2.93-4.44L2.93-2.12Q2.93-1.22 3.64-1.22Q3.93-1.22 4.22-1.38M10.39-3.12L10.39-2.37L6.64-2.37Q6.73-1.12 8.22-1.12Q9.16-1.12 9.88-1.57L9.88-0.29Q9.09 0.14 7.81 0.14Q6.42 0.14 5.65-0.63Q4.88-1.40 4.88-2.79Q4.88-4.22 5.71-5.05Q6.54-5.89 7.75-5.89Q9.01-5.89 9.70-5.14Q10.39-4.40 10.39-3.12M6.63-3.46L8.74-3.46Q8.74-4.69 7.74-4.69Q7.32-4.69 7.01-4.34Q6.69-3.99 6.63-3.46M15-3.05L17.21 0L15.08 0L13.24-2.85L13.22-2.85L13.22 0L11.44 0L11.44-8.51L13.22-8.51L13.22-3.09L13.24-3.09L14.95-5.75L17.06-5.75L15-3.05M23.43-3.52L23.43 0L21.66 0L21.66-3.20Q21.66-4.53 20.70-4.53Q20.24-4.53 19.95-4.18Q19.65-3.82 19.65-3.28L19.65 0L17.87 0L17.87-5.75L19.65-5.75L19.65-4.84L19.67-4.84Q20.30-5.89 21.52-5.89Q23.43-5.89 23.43-3.52M27.57 0.14Q26.13 0.14 25.31-0.67Q24.49-1.47 24.49-2.85Q24.49-4.28 25.34-5.08Q26.20-5.89 27.65-5.89Q29.08-5.89 29.90-5.08Q30.71-4.28 30.71-2.95Q30.71-1.52 29.87-0.69Q29.03 0.14 27.57 0.14M27.62-4.53Q26.99-4.53 26.64-4.10Q26.29-3.67 26.29-2.87Q26.29-1.22 27.63-1.22Q28.90-1.22 28.90-2.92Q28.90-4.53 27.62-4.53M33.64-8.51L33.64 0L31.86 0L31.86-8.51L33.64-8.51M37.87 0.14Q36.43 0.14 35.61-0.67Q34.79-1.47 34.79-2.85Q34.79-4.28 35.64-5.08Q36.49-5.89 37.95-5.89Q39.38-5.89 40.19-5.08Q41.01-4.28 41.01-2.95Q41.01-1.52 40.17-0.69Q39.33 0.14 37.87 0.14M37.91-4.53Q37.29-4.53 36.94-4.10Q36.59-3.67 36.59-2.87Q36.59-1.22 37.93-1.22Q39.20-1.22 39.20-2.92Q39.20-4.53 37.91-4.53M43.06-6.66Q42.61-6.66 42.32-6.93Q42.04-7.19 42.04-7.58Q42.04-7.98 42.32-8.23Q42.61-8.48 43.06-8.48Q43.51-8.48 43.80-8.23Q44.08-7.98 44.08-7.58Q44.08-7.18 43.80-6.92Q43.51-6.66 43.06-6.66M43.93-5.75L43.93-0.10Q43.93 1.17 43.31 1.94Q42.69 2.70 41.51 2.70Q41.13 2.70 40.67 2.53L40.67 1.14Q41.04 1.35 41.32 1.35Q42.16 1.35 42.16 0.03L42.16-5.75L43.93-5.75M46.33-6.66Q45.88-6.66 45.59-6.93Q45.30-7.19 45.30-7.58Q45.30-7.98 45.59-8.23Q45.88-8.48 46.33-8.48Q46.78-8.48 47.06-8.23Q47.35-7.98 47.35-7.58Q47.35-7.18 47.06-6.92Q46.78-6.66 46.33-6.66M47.20-5.75L47.20 0L45.43 0L45.43-5.75L47.20-5.75M49.49 0.14Q49.05 0.14 48.76-0.13Q48.47-0.40 48.47-0.79Q48.47-1.20 48.77-1.45Q49.07-1.71 49.52-1.71Q49.97-1.71 50.26-1.45Q50.55-1.19 50.55-0.79Q50.55-0.38 50.25-0.12Q49.96 0.14 49.49 0.14M56.17-1.63L56.17-0.21Q55.57 0.14 54.43 0.14Q53.11 0.14 52.29-0.66Q51.47-1.47 51.47-2.73Q51.47-4.20 52.35-5.05Q53.23-5.89 54.70-5.89Q55.71-5.89 56.17-5.62L56.17-4.12Q55.61-4.53 54.93-4.53Q54.16-4.53 53.72-4.09Q53.27-3.64 53.27-2.85Q53.27-2.09 53.70-1.65Q54.13-1.22 54.87-1.22Q55.53-1.22 56.17-1.63M60.07 0.14Q58.63 0.14 57.81-0.67Q56.99-1.47 56.99-2.85Q56.99-4.28 57.84-5.08Q58.70-5.89 60.15-5.89Q61.58-5.89 62.40-5.08Q63.21-4.28 63.21-2.95Q63.21-1.52 62.37-0.69Q61.53 0.14 60.07 0.14M60.12-4.53Q59.49-4.53 59.14-4.10Q58.79-3.67 58.79-2.87Q58.79-1.22 60.13-1.22Q61.40-1.22 61.40-2.92Q61.40-4.53 60.12-4.53M73.49-3.58L73.49 0L71.72 0L71.72-3.28Q71.72-4.53 70.80-4.53Q70.36-4.53 70.09-4.16Q69.81-3.78 69.81-3.22L69.81 0L68.04 0L68.04-3.31Q68.04-4.53 67.14-4.53Q66.68-4.53 66.41-4.17Q66.14-3.81 66.14-3.20L66.14 0L64.36 0L64.36-5.75L66.14-5.75L66.14-4.85L66.16-4.85Q66.43-5.31 66.93-5.60Q67.43-5.89 68.02-5.89Q69.24-5.89 69.69-4.82Q70.34-5.89 71.62-5.89Q73.49-5.89 73.49-3.58"/>
  </g>
</svg>
